<svg width="350" height="60" viewBox="0 0 350 60" fill="none" xmlns="http://www.w3.org/2000/svg">
<g clip-path="url(#clip0)">
<rect width="350" height="60" fill="#FFFFFE"/>
<path d="M54.4062 35.6392C54.4062 35.6392 55.4794 30.9905 55.2692 29.0737C55.2692 29.0737 57.1433 30.3411 60.5339 29.0737C63.9245 27.8063 64.3744 27.7551 65.803 26.4992C67.2315 25.2433 72.7086 24.06 72.7086 24.06C72.7086 24.06 68.9439 27.4465 67.1624 29.2682C65.381 31.0898 63.8979 32.0914 61.9691 33.2528C60.0403 34.4143 55.2949 36.095 54.4062 35.6392Z" fill="#889B4C"/>
<path d="M21.5939 35.7365C21.5939 35.7365 20.5206 31.0878 20.7309 29.1711C20.7309 29.1711 18.8567 30.4385 15.4661 29.1711C12.0755 27.9036 11.6256 27.8525 10.1971 26.5966C8.76856 25.3407 3.29138 24.1573 3.29138 24.1573C3.29138 24.1573 7.05609 27.5438 8.83758 29.3655C10.6191 31.1872 12.1022 32.1887 14.0309 33.3501C15.9597 34.5116 20.7051 36.1923 21.5939 35.7365Z" fill="#889B4C"/>
<path d="M21.6439 21.9531L21.5125 22.7256C20.6543 22.636 19.6788 22.6018 18.6069 22.7127C15.1491 23.0705 14.7913 23.6994 10.4988 22.6398C6.20632 21.58 2.62933 23.4282 2.62933 23.4282C2.62933 23.4282 9.34875 25.7391 10.9181 27.2102C12.4875 28.6815 17.882 29.9565 20.4322 29.0737C20.4322 29.0737 20.8245 36.2339 22.7862 38.1957L29.6689 46.3366C29.6689 46.3366 32.5946 48.8867 37.0084 48.5924H38.6931C43.1068 48.8867 46.0325 46.3366 46.0325 46.3366L52.9152 38.1957C54.8769 36.2339 55.2692 29.0737 55.2692 29.0737C57.8192 29.9565 63.2139 28.6815 64.7832 27.2102C66.3526 25.7391 73.0721 23.4282 73.0721 23.4282C73.0721 23.4282 69.4949 21.58 65.2025 22.6398C60.91 23.6994 60.5523 23.0705 57.0945 22.7127C56.0271 22.6022 55.0556 22.6358 54.1999 22.7244L54.0574 21.9531C52.6243 16.8897 46.3191 13.546 46.3191 13.546C45.1791 11.7791 42.4465 11.2395 40.4229 11.0892L40.4194 11.0864L40.3823 11.0861C39.0342 10.9889 38.0075 11.062 38.0075 11.062L38.0117 11.0649L37.6938 11.062C37.6938 11.062 31.293 10.5845 29.3823 13.546C29.3823 13.546 28.2475 14.1514 26.8342 15.2279L26.8339 15.2276L26.8341 15.228C24.9111 16.6928 22.4698 19.0345 21.6439 21.9531Z" fill="#B9D67C"/>
<path d="M27.0493 29.9852C27.0493 29.9852 26.3107 32.8053 29.7687 32.738C29.7687 32.738 32.0851 33.1409 31.9508 29.9852" fill="white"/>
<path d="M24.2293 29.9852C24.2293 29.9852 25.5369 25.2852 29.8182 25.6209C29.8182 25.6209 34.3007 25.9565 35.3079 29.9852" fill="#889B4C"/>
<path d="M51.7707 29.9852C51.7707 29.9852 50.463 25.2852 46.1818 25.6209C46.1818 25.6209 41.6991 25.9565 40.692 29.9852" fill="#889B4C"/>
<path d="M48.9508 29.9852C48.9508 29.9852 49.6893 32.8053 46.2313 32.738C46.2313 32.738 43.915 33.1409 44.0493 29.9852" fill="white"/>
<path d="M37.8431 11.2372C37.8431 11.2372 31.4423 10.7596 29.5316 13.7211C29.5316 13.7211 23.2262 17.0648 21.7933 22.1281" stroke="#303030" stroke-width="0.75" stroke-miterlimit="10" stroke-linecap="round" stroke-linejoin="round"/>
<path d="M2.77863 23.6033C2.77863 23.6033 8.71341 28.8565 9.4 29.9355C10.0866 31.0144 17.4077 36.4385 21.5938 35.6392" stroke="#303030" stroke-width="0.75" stroke-miterlimit="10" stroke-linecap="round" stroke-linejoin="round"/>
<path d="M24.2293 29.9852C24.2293 29.9852 25.5369 25.2852 29.8182 25.6209C29.8182 25.6209 34.3007 25.9565 35.3079 29.9852" stroke="#303030" stroke-width="0.75" stroke-miterlimit="10" stroke-linecap="round" stroke-linejoin="round"/>
<path d="M24.2293 29.9852H35.3078" stroke="#303030" stroke-width="0.75" stroke-miterlimit="10" stroke-linecap="round" stroke-linejoin="round"/>
<path d="M27.0493 29.9852C27.0493 29.9852 26.3107 32.8053 29.7687 32.738C29.7687 32.738 32.0851 33.1409 31.9508 29.9852" stroke="#303030" stroke-width="0.75" stroke-miterlimit="10" stroke-linecap="round" stroke-linejoin="round"/>
<path d="M25.5721 32.2681C25.5721 32.2681 29.0636 34.4837 33.5622 32.2681" stroke="#303030" stroke-width="0.75" stroke-miterlimit="10" stroke-linecap="round" stroke-linejoin="round"/>
<path d="M38.1569 11.2372C38.1569 11.2372 44.5577 10.7596 46.4684 13.7211C46.4684 13.7211 52.7736 17.0648 54.2067 22.1281" stroke="#303030" stroke-width="0.75" stroke-miterlimit="10" stroke-linecap="round" stroke-linejoin="round"/>
<path d="M51.1629 23.6033C51.1629 23.6033 53.786 22.5301 57.2438 22.8878C60.7016 23.2456 61.0594 23.8745 65.3519 22.8149C69.6442 21.7551 73.2214 23.6033 73.2214 23.6033C73.2214 23.6033 66.5019 25.9142 64.9326 27.3853C63.3632 28.8565 57.9686 30.1316 55.4185 29.2489C55.4185 29.2489 55.0262 36.4091 53.0645 38.3708L46.1818 46.5116C46.1818 46.5116 43.2561 49.0619 38.8423 48.7676H37.1577C32.7439 49.0619 29.8182 46.5116 29.8182 46.5116L22.9356 38.3708C20.9739 36.4091 20.5815 29.2489 20.5815 29.2489C18.0313 30.1317 12.6368 28.8565 11.0675 27.3853C9.4981 25.9142 2.77866 23.6033 2.77866 23.6033C2.77866 23.6033 6.35568 21.7551 10.6482 22.8149C14.9407 23.8745 15.2984 23.2456 18.7563 22.8878C22.2141 22.5301 24.8372 23.6033 24.8372 23.6033" stroke="#303030" stroke-width="0.75" stroke-miterlimit="10" stroke-linecap="round" stroke-linejoin="round"/>
<path d="M38.1569 11.2372C38.1569 11.2372 44.5577 10.7596 46.4684 13.7211C46.4684 13.7211 52.7736 17.0648 54.2067 22.1281" stroke="#303030" stroke-width="0.75" stroke-miterlimit="10" stroke-linecap="round" stroke-linejoin="round"/>
<path d="M51.1629 23.6033C51.1629 23.6033 53.786 22.5301 57.2438 22.8878C60.7016 23.2456 61.0594 23.8745 65.3519 22.8149C69.6442 21.7551 73.2214 23.6033 73.2214 23.6033C73.2214 23.6033 66.5019 25.9142 64.9326 27.3853C63.3632 28.8565 57.9686 30.1316 55.4185 29.2489C55.4185 29.2489 55.0262 36.4091 53.0645 38.3708L46.1818 46.5116C46.1818 46.5116 43.2561 49.0619 38.8423 48.7676H37.1577C32.7439 49.0619 29.8182 46.5116 29.8182 46.5116L22.9356 38.3708C20.9739 36.4091 20.5815 29.2489 20.5815 29.2489C18.0313 30.1317 12.6368 28.8565 11.0675 27.3853C9.4981 25.9142 2.77866 23.6033 2.77866 23.6033C2.77866 23.6033 6.35568 21.7551 10.6482 22.8149C14.9407 23.8745 15.2984 23.2456 18.7563 22.8878C22.2141 22.5301 24.8372 23.6033 24.8372 23.6033" stroke="#303030" stroke-width="0.75" stroke-miterlimit="10" stroke-linecap="round" stroke-linejoin="round"/>
<path d="M73.2214 23.6033C73.2214 23.6033 67.2866 28.8565 66.6 29.9355C65.9134 31.0144 58.5923 36.4385 54.4062 35.6392" stroke="#303030" stroke-width="0.75" stroke-miterlimit="10" stroke-linecap="round" stroke-linejoin="round"/>
<path d="M51.7707 29.9852C51.7707 29.9852 50.463 25.2852 46.1818 25.6209C46.1818 25.6209 41.6991 25.9565 40.692 29.9852" stroke="#303030" stroke-width="0.75" stroke-miterlimit="10" stroke-linecap="round" stroke-linejoin="round"/>
<path d="M51.7707 29.9852H40.692" stroke="#303030" stroke-width="0.75" stroke-miterlimit="10" stroke-linecap="round" stroke-linejoin="round"/>
<path d="M48.9508 29.9852C48.9508 29.9852 49.6893 32.8053 46.2313 32.738C46.2313 32.738 43.915 33.1409 44.0493 29.9852" stroke="#303030" stroke-width="0.75" stroke-miterlimit="10" stroke-linecap="round" stroke-linejoin="round"/>
<path d="M50.4278 32.2681C50.4278 32.2681 46.9364 34.4837 42.4377 32.2681" stroke="#303030" stroke-width="0.75" stroke-miterlimit="10" stroke-linecap="round" stroke-linejoin="round"/>
<path d="M30.537 43.1522C30.6105 36.0167 35.3079 34.5455 35.3079 34.5455L37.8431 35.6392L40.5416 34.5455C40.5416 34.5455 45.3231 36.4581 45.1759 43.1522" stroke="#303030" stroke-width="0.75" stroke-miterlimit="10" stroke-linecap="round" stroke-linejoin="round"/>
<path d="M30.7624 40.7384H44.939" stroke="#303030" stroke-width="0.75" stroke-miterlimit="10" stroke-linecap="round" stroke-linejoin="round"/>
<path d="M35.3079 34.5455L37.1577 27.7945" stroke="#303030" stroke-width="0.75" stroke-miterlimit="10" stroke-linecap="round" stroke-linejoin="round"/>
<path d="M40.6718 34.5455L38.822 27.7945" stroke="#303030" stroke-width="0.75" stroke-miterlimit="10" stroke-linecap="round" stroke-linejoin="round"/>
<path d="M30.7623 22.487C30.7623 22.487 29.02 17.2988 26.9832 15.4027" stroke="#303030" stroke-width="0.75" stroke-miterlimit="10" stroke-linecap="round" stroke-linejoin="round"/>
<path d="M35.3079 22.1281C35.3079 22.1281 34.2244 15.934 30.7624 12.9181" stroke="#303030" stroke-width="0.75" stroke-miterlimit="10" stroke-linecap="round" stroke-linejoin="round"/>
<path d="M45.2173 22.487C45.2173 22.487 46.9597 17.2988 48.9965 15.4027" stroke="#303030" stroke-width="0.75" stroke-miterlimit="10" stroke-linecap="round" stroke-linejoin="round"/>
<path d="M40.6718 21.9487C40.6718 21.9487 41.7553 15.7546 45.2174 12.7387" stroke="#303030" stroke-width="0.75" stroke-miterlimit="10" stroke-linecap="round" stroke-linejoin="round"/>
<path d="M25.0197 36.038C25.0197 36.038 26.1153 37.8808 26.6633 38.329" stroke="#303030" stroke-width="0.75" stroke-miterlimit="10" stroke-linecap="round" stroke-linejoin="round"/>
<path d="M20.9708 32.7548L17.5175 32.13" stroke="#303030" stroke-width="0.75" stroke-miterlimit="10" stroke-linecap="round" stroke-linejoin="round"/>
<path d="M55.0286 32.7548L57.8113 32.2681" stroke="#303030" stroke-width="0.75" stroke-miterlimit="10" stroke-linecap="round" stroke-linejoin="round"/>
<path d="M90.072 21.2C92.248 21.2 93.96 21.72 95.208 22.76C96.456 23.8 97.08 25.232 97.08 27.056C97.08 28.88 96.456 30.312 95.208 31.352C93.96 32.392 92.248 32.912 90.072 32.912H85.92V38H83.52V21.2H90.072ZM90 30.824C91.52 30.824 92.68 30.504 93.48 29.864C94.28 29.208 94.68 28.272 94.68 27.056C94.68 25.84 94.28 24.912 93.48 24.272C92.68 23.616 91.52 23.288 90 23.288H85.92V30.824H90ZM104.785 25.16C106.545 25.16 107.889 25.592 108.817 26.456C109.761 27.32 110.233 28.608 110.233 30.32V38H108.049V36.32C107.665 36.912 107.113 37.368 106.393 37.688C105.689 37.992 104.849 38.144 103.873 38.144C102.449 38.144 101.305 37.8 100.441 37.112C99.5928 36.424 99.1688 35.52 99.1688 34.4C99.1688 33.28 99.5768 32.384 100.393 31.712C101.209 31.024 102.505 30.68 104.281 30.68H107.929V30.224C107.929 29.232 107.641 28.472 107.065 27.944C106.489 27.416 105.641 27.152 104.521 27.152C103.769 27.152 103.033 27.28 102.313 27.536C101.593 27.776 100.985 28.104 100.489 28.52L99.5288 26.792C100.185 26.264 100.969 25.864 101.881 25.592C102.793 25.304 103.761 25.16 104.785 25.16ZM104.257 36.368C105.137 36.368 105.897 36.176 106.537 35.792C107.177 35.392 107.641 34.832 107.929 34.112V32.336H104.377C102.425 32.336 101.449 32.992 101.449 34.304C101.449 34.944 101.697 35.448 102.193 35.816C102.689 36.184 103.377 36.368 104.257 36.368ZM126.567 20.192V38H124.359V35.984C123.847 36.688 123.199 37.224 122.415 37.592C121.631 37.96 120.767 38.144 119.823 38.144C118.591 38.144 117.487 37.872 116.511 37.328C115.535 36.784 114.767 36.024 114.207 35.048C113.663 34.056 113.391 32.92 113.391 31.64C113.391 30.36 113.663 29.232 114.207 28.256C114.767 27.28 115.535 26.52 116.511 25.976C117.487 25.432 118.591 25.16 119.823 25.16C120.735 25.16 121.575 25.336 122.343 25.688C123.111 26.024 123.751 26.528 124.263 27.2V20.192H126.567ZM120.015 36.128C120.815 36.128 121.543 35.944 122.199 35.576C122.855 35.192 123.367 34.664 123.735 33.992C124.103 33.304 124.287 32.52 124.287 31.64C124.287 30.76 124.103 29.984 123.735 29.312C123.367 28.624 122.855 28.096 122.199 27.728C121.543 27.36 120.815 27.176 120.015 27.176C119.199 27.176 118.463 27.36 117.807 27.728C117.167 28.096 116.655 28.624 116.271 29.312C115.903 29.984 115.719 30.76 115.719 31.64C115.719 32.52 115.903 33.304 116.271 33.992C116.655 34.664 117.167 35.192 117.807 35.576C118.463 35.944 119.199 36.128 120.015 36.128ZM135.558 25.16C137.318 25.16 138.662 25.592 139.59 26.456C140.534 27.32 141.006 28.608 141.006 30.32V38H138.822V36.32C138.438 36.912 137.886 37.368 137.166 37.688C136.462 37.992 135.622 38.144 134.646 38.144C133.222 38.144 132.078 37.8 131.214 37.112C130.366 36.424 129.942 35.52 129.942 34.4C129.942 33.28 130.35 32.384 131.166 31.712C131.982 31.024 133.278 30.68 135.054 30.68H138.702V30.224C138.702 29.232 138.414 28.472 137.838 27.944C137.262 27.416 136.414 27.152 135.294 27.152C134.542 27.152 133.806 27.28 133.086 27.536C132.366 27.776 131.758 28.104 131.262 28.52L130.302 26.792C130.958 26.264 131.742 25.864 132.654 25.592C133.566 25.304 134.534 25.16 135.558 25.16ZM135.03 36.368C135.91 36.368 136.67 36.176 137.31 35.792C137.95 35.392 138.414 34.832 138.702 34.112V32.336H135.15C133.198 32.336 132.222 32.992 132.222 34.304C132.222 34.944 132.47 35.448 132.966 35.816C133.462 36.184 134.15 36.368 135.03 36.368ZM164.284 25.28L159.532 38H157.324L153.652 28.352L149.932 38H147.724L142.996 25.28H145.18L148.876 35.408L152.716 25.28H154.66L158.428 35.456L162.22 25.28H164.284ZM170.855 25.16C172.615 25.16 173.959 25.592 174.887 26.456C175.831 27.32 176.303 28.608 176.303 30.32V38H174.119V36.32C173.735 36.912 173.183 37.368 172.463 37.688C171.759 37.992 170.919 38.144 169.943 38.144C168.519 38.144 167.375 37.8 166.511 37.112C165.663 36.424 165.239 35.52 165.239 34.4C165.239 33.28 165.647 32.384 166.463 31.712C167.279 31.024 168.575 30.68 170.351 30.68H173.999V30.224C173.999 29.232 173.711 28.472 173.135 27.944C172.559 27.416 171.711 27.152 170.591 27.152C169.839 27.152 169.103 27.28 168.383 27.536C167.663 27.776 167.055 28.104 166.559 28.52L165.599 26.792C166.255 26.264 167.039 25.864 167.951 25.592C168.863 25.304 169.831 25.16 170.855 25.16ZM170.327 36.368C171.207 36.368 171.967 36.176 172.607 35.792C173.247 35.392 173.711 34.832 173.999 34.112V32.336H170.447C168.495 32.336 167.519 32.992 167.519 34.304C167.519 34.944 167.767 35.448 168.263 35.816C168.759 36.184 169.447 36.368 170.327 36.368ZM187.359 25.16C188.975 25.16 190.255 25.632 191.199 26.576C192.159 27.504 192.639 28.872 192.639 30.68V38H190.335V30.944C190.335 29.712 190.039 28.784 189.447 28.16C188.855 27.536 188.007 27.224 186.903 27.224C185.655 27.224 184.671 27.592 183.951 28.328C183.231 29.048 182.871 30.088 182.871 31.448V38H180.567V25.28H182.775V27.2C183.239 26.544 183.863 26.04 184.647 25.688C185.447 25.336 186.351 25.16 187.359 25.16ZM200.551 38.144C199.511 38.144 198.511 38.008 197.551 37.736C196.591 37.448 195.839 37.088 195.295 36.656L196.255 34.832C196.815 35.232 197.495 35.552 198.295 35.792C199.095 36.032 199.903 36.152 200.719 36.152C202.735 36.152 203.743 35.576 203.743 34.424C203.743 34.04 203.607 33.736 203.335 33.512C203.063 33.288 202.719 33.128 202.303 33.032C201.903 32.92 201.327 32.8 200.575 32.672C199.551 32.512 198.711 32.328 198.055 32.12C197.415 31.912 196.863 31.56 196.399 31.064C195.935 30.568 195.703 29.872 195.703 28.976C195.703 27.824 196.183 26.904 197.143 26.216C198.103 25.512 199.391 25.16 201.007 25.16C201.855 25.16 202.703 25.264 203.551 25.472C204.399 25.68 205.095 25.96 205.639 26.312L204.655 28.136C203.615 27.464 202.391 27.128 200.983 27.128C200.007 27.128 199.263 27.288 198.751 27.608C198.239 27.928 197.983 28.352 197.983 28.88C197.983 29.296 198.127 29.624 198.415 29.864C198.703 30.104 199.055 30.28 199.471 30.392C199.903 30.504 200.503 30.632 201.271 30.776C202.295 30.952 203.119 31.144 203.743 31.352C204.383 31.544 204.927 31.88 205.375 32.36C205.823 32.84 206.047 33.512 206.047 34.376C206.047 35.528 205.551 36.448 204.559 37.136C203.583 37.808 202.247 38.144 200.551 38.144Z" fill="#232323"/>
<path d="M227.024 21.2C229.168 21.2 230.848 21.712 232.064 22.736C233.28 23.76 233.888 25.168 233.888 26.96C233.888 28.752 233.28 30.16 232.064 31.184C230.848 32.192 229.168 32.696 227.024 32.696H222.512V38H220.736V21.2H227.024ZM226.976 31.136C228.64 31.136 229.912 30.776 230.792 30.056C231.672 29.32 232.112 28.288 232.112 26.96C232.112 25.6 231.672 24.56 230.792 23.84C229.912 23.104 228.64 22.736 226.976 22.736H222.512V31.136H226.976ZM242.458 38.12C241.242 38.12 240.146 37.848 239.17 37.304C238.194 36.744 237.426 35.976 236.866 35C236.306 34.024 236.026 32.92 236.026 31.688C236.026 30.456 236.306 29.352 236.866 28.376C237.426 27.4 238.194 26.64 239.17 26.096C240.146 25.552 241.242 25.28 242.458 25.28C243.674 25.28 244.77 25.552 245.746 26.096C246.722 26.64 247.482 27.4 248.026 28.376C248.586 29.352 248.866 30.456 248.866 31.688C248.866 32.92 248.586 34.024 248.026 35C247.482 35.976 246.722 36.744 245.746 37.304C244.77 37.848 243.674 38.12 242.458 38.12ZM242.458 36.608C243.354 36.608 244.154 36.408 244.858 36.008C245.578 35.592 246.138 35.008 246.538 34.256C246.938 33.504 247.138 32.648 247.138 31.688C247.138 30.728 246.938 29.872 246.538 29.12C246.138 28.368 245.578 27.792 244.858 27.392C244.154 26.976 243.354 26.768 242.458 26.768C241.562 26.768 240.754 26.976 240.034 27.392C239.33 27.792 238.77 28.368 238.354 29.12C237.954 29.872 237.754 30.728 237.754 31.688C237.754 32.648 237.954 33.504 238.354 34.256C238.77 35.008 239.33 35.592 240.034 36.008C240.754 36.408 241.562 36.608 242.458 36.608ZM255.729 38.12C254.705 38.12 253.721 37.976 252.777 37.688C251.849 37.384 251.121 37.008 250.593 36.56L251.361 35.216C251.889 35.632 252.553 35.976 253.353 36.248C254.153 36.504 254.985 36.632 255.849 36.632C257.001 36.632 257.849 36.456 258.393 36.104C258.953 35.736 259.233 35.224 259.233 34.568C259.233 34.104 259.081 33.744 258.777 33.488C258.473 33.216 258.089 33.016 257.625 32.888C257.161 32.744 256.545 32.608 255.777 32.48C254.753 32.288 253.929 32.096 253.305 31.904C252.681 31.696 252.145 31.352 251.697 30.872C251.265 30.392 251.049 29.728 251.049 28.88C251.049 27.824 251.489 26.96 252.369 26.288C253.249 25.616 254.473 25.28 256.041 25.28C256.857 25.28 257.673 25.392 258.489 25.616C259.305 25.824 259.977 26.104 260.505 26.456L259.761 27.824C258.721 27.104 257.481 26.744 256.041 26.744C254.953 26.744 254.129 26.936 253.569 27.32C253.025 27.704 252.753 28.208 252.753 28.832C252.753 29.312 252.905 29.696 253.209 29.984C253.529 30.272 253.921 30.488 254.385 30.632C254.849 30.76 255.489 30.896 256.305 31.04C257.313 31.232 258.121 31.424 258.729 31.616C259.337 31.808 259.857 32.136 260.289 32.6C260.721 33.064 260.937 33.704 260.937 34.52C260.937 35.624 260.473 36.504 259.545 37.16C258.633 37.8 257.361 38.12 255.729 38.12ZM270.735 37.232C270.415 37.52 270.015 37.744 269.535 37.904C269.071 38.048 268.583 38.12 268.071 38.12C266.887 38.12 265.975 37.8 265.335 37.16C264.695 36.52 264.375 35.616 264.375 34.448V26.816H262.119V25.376H264.375V22.616H266.079V25.376H269.919V26.816H266.079V34.352C266.079 35.104 266.263 35.68 266.631 36.08C267.015 36.464 267.559 36.656 268.263 36.656C268.615 36.656 268.951 36.6 269.271 36.488C269.607 36.376 269.895 36.216 270.135 36.008L270.735 37.232ZM278.253 25.28C279.901 25.28 281.165 25.696 282.045 26.528C282.925 27.344 283.365 28.56 283.365 30.176V38H281.733V36.032C281.349 36.688 280.781 37.2 280.029 37.568C279.293 37.936 278.413 38.12 277.389 38.12C275.981 38.12 274.861 37.784 274.029 37.112C273.197 36.44 272.781 35.552 272.781 34.448C272.781 33.376 273.165 32.512 273.933 31.856C274.717 31.2 275.957 30.872 277.653 30.872H281.661V30.104C281.661 29.016 281.357 28.192 280.749 27.632C280.141 27.056 279.253 26.768 278.085 26.768C277.285 26.768 276.517 26.904 275.781 27.176C275.045 27.432 274.413 27.792 273.885 28.256L273.117 26.984C273.757 26.44 274.525 26.024 275.421 25.736C276.317 25.432 277.261 25.28 278.253 25.28ZM277.653 36.776C278.613 36.776 279.437 36.56 280.125 36.128C280.813 35.68 281.325 35.04 281.661 34.208V32.144H277.701C275.541 32.144 274.461 32.896 274.461 34.4C274.461 35.136 274.741 35.72 275.301 36.152C275.861 36.568 276.645 36.776 277.653 36.776ZM299.728 25.376V36.464C299.728 38.608 299.2 40.192 298.144 41.216C297.104 42.256 295.528 42.776 293.416 42.776C292.248 42.776 291.136 42.6 290.08 42.248C289.04 41.912 288.192 41.44 287.536 40.832L288.4 39.536C289.008 40.08 289.744 40.504 290.608 40.808C291.488 41.112 292.408 41.264 293.368 41.264C294.968 41.264 296.144 40.888 296.896 40.136C297.648 39.4 298.024 38.248 298.024 36.68V35.072C297.496 35.872 296.8 36.48 295.936 36.896C295.088 37.312 294.144 37.52 293.104 37.52C291.92 37.52 290.84 37.264 289.864 36.752C288.904 36.224 288.144 35.496 287.584 34.568C287.04 33.624 286.768 32.56 286.768 31.376C286.768 30.192 287.04 29.136 287.584 28.208C288.144 27.28 288.904 26.56 289.864 26.048C290.824 25.536 291.904 25.28 293.104 25.28C294.176 25.28 295.144 25.496 296.008 25.928C296.872 26.36 297.568 26.984 298.096 27.8V25.376H299.728ZM293.272 36.008C294.184 36.008 295.008 35.816 295.744 35.432C296.48 35.032 297.048 34.48 297.448 33.776C297.864 33.072 298.072 32.272 298.072 31.376C298.072 30.48 297.864 29.688 297.448 29C297.048 28.296 296.48 27.752 295.744 27.368C295.024 26.968 294.2 26.768 293.272 26.768C292.36 26.768 291.536 26.96 290.8 27.344C290.08 27.728 289.512 28.272 289.096 28.976C288.696 29.68 288.496 30.48 288.496 31.376C288.496 32.272 288.696 33.072 289.096 33.776C289.512 34.48 290.08 35.032 290.8 35.432C291.536 35.816 292.36 36.008 293.272 36.008ZM315.485 32.216H304.925C305.021 33.528 305.525 34.592 306.437 35.408C307.349 36.208 308.501 36.608 309.893 36.608C310.677 36.608 311.397 36.472 312.053 36.2C312.709 35.912 313.277 35.496 313.757 34.952L314.717 36.056C314.157 36.728 313.453 37.24 312.605 37.592C311.773 37.944 310.853 38.12 309.845 38.12C308.549 38.12 307.397 37.848 306.389 37.304C305.397 36.744 304.621 35.976 304.061 35C303.501 34.024 303.221 32.92 303.221 31.688C303.221 30.456 303.485 29.352 304.013 28.376C304.557 27.4 305.293 26.64 306.221 26.096C307.165 25.552 308.221 25.28 309.389 25.28C310.557 25.28 311.605 25.552 312.533 26.096C313.461 26.64 314.189 27.4 314.717 28.376C315.245 29.336 315.509 30.44 315.509 31.688L315.485 32.216ZM309.389 26.744C308.173 26.744 307.149 27.136 306.317 27.92C305.501 28.688 305.037 29.696 304.925 30.944H313.877C313.765 29.696 313.293 28.688 312.461 27.92C311.645 27.136 310.621 26.744 309.389 26.744ZM325.41 25.28C326.994 25.28 328.25 25.744 329.178 26.672C330.122 27.584 330.594 28.92 330.594 30.68V38H328.89V30.848C328.89 29.536 328.562 28.536 327.906 27.848C327.25 27.16 326.314 26.816 325.098 26.816C323.738 26.816 322.658 27.224 321.858 28.04C321.074 28.84 320.682 29.952 320.682 31.376V38H318.978V25.376H320.61V27.704C321.074 26.936 321.714 26.344 322.53 25.928C323.362 25.496 324.322 25.28 325.41 25.28ZM338.604 38.12C337.58 38.12 336.596 37.976 335.652 37.688C334.724 37.384 333.996 37.008 333.468 36.56L334.236 35.216C334.764 35.632 335.428 35.976 336.228 36.248C337.028 36.504 337.86 36.632 338.724 36.632C339.876 36.632 340.724 36.456 341.268 36.104C341.828 35.736 342.108 35.224 342.108 34.568C342.108 34.104 341.956 33.744 341.652 33.488C341.348 33.216 340.964 33.016 340.5 32.888C340.036 32.744 339.42 32.608 338.652 32.48C337.628 32.288 336.804 32.096 336.18 31.904C335.556 31.696 335.02 31.352 334.572 30.872C334.14 30.392 333.924 29.728 333.924 28.88C333.924 27.824 334.364 26.96 335.244 26.288C336.124 25.616 337.348 25.28 338.916 25.28C339.732 25.28 340.548 25.392 341.364 25.616C342.18 25.824 342.852 26.104 343.38 26.456L342.636 27.824C341.596 27.104 340.356 26.744 338.916 26.744C337.828 26.744 337.004 26.936 336.444 27.32C335.9 27.704 335.628 28.208 335.628 28.832C335.628 29.312 335.78 29.696 336.084 29.984C336.404 30.272 336.796 30.488 337.26 30.632C337.724 30.76 338.364 30.896 339.18 31.04C340.188 31.232 340.996 31.424 341.604 31.616C342.212 31.808 342.732 32.136 343.164 32.6C343.596 33.064 343.812 33.704 343.812 34.52C343.812 35.624 343.348 36.504 342.42 37.16C341.508 37.8 340.236 38.12 338.604 38.12Z" fill="#232323"/>
<rect x="212" y="10" width="1" height="40" fill="#232323"/>
</g>
<defs>
<clipPath id="clip0">
<rect width="350" height="60" fill="white"/>
</clipPath>
</defs>
</svg>
