<svg width="318" height="60" viewBox="0 0 318 60" fill="none" xmlns="http://www.w3.org/2000/svg">
<g clip-path="url(#clip0)">
<rect width="318" height="60" fill="#FFFFFE"/>
<path d="M54.4062 35.6392C54.4062 35.6392 55.4794 30.9905 55.2692 29.0737C55.2692 29.0737 57.1433 30.3411 60.5339 29.0737C63.9245 27.8063 64.3744 27.7551 65.803 26.4992C67.2315 25.2433 72.7086 24.06 72.7086 24.06C72.7086 24.06 68.9439 27.4465 67.1624 29.2682C65.381 31.0898 63.8979 32.0914 61.9691 33.2528C60.0403 34.4143 55.2949 36.095 54.4062 35.6392Z" fill="#889B4C"/>
<path d="M21.5939 35.7365C21.5939 35.7365 20.5206 31.0878 20.7309 29.1711C20.7309 29.1711 18.8567 30.4385 15.4661 29.1711C12.0755 27.9036 11.6256 27.8525 10.1971 26.5966C8.76856 25.3407 3.29138 24.1573 3.29138 24.1573C3.29138 24.1573 7.05609 27.5438 8.83758 29.3655C10.6191 31.1872 12.1022 32.1887 14.0309 33.3501C15.9597 34.5116 20.7051 36.1923 21.5939 35.7365Z" fill="#889B4C"/>
<path d="M21.6439 21.9531L21.5125 22.7256C20.6543 22.636 19.6788 22.6018 18.6069 22.7127C15.1491 23.0705 14.7913 23.6994 10.4988 22.6398C6.20632 21.58 2.62933 23.4282 2.62933 23.4282C2.62933 23.4282 9.34875 25.7391 10.9181 27.2102C12.4875 28.6815 17.882 29.9565 20.4322 29.0737C20.4322 29.0737 20.8245 36.2339 22.7862 38.1957L29.6689 46.3366C29.6689 46.3366 32.5946 48.8867 37.0084 48.5924H38.6931C43.1068 48.8867 46.0325 46.3366 46.0325 46.3366L52.9152 38.1957C54.8769 36.2339 55.2692 29.0737 55.2692 29.0737C57.8192 29.9565 63.2139 28.6815 64.7832 27.2102C66.3526 25.7391 73.0721 23.4282 73.0721 23.4282C73.0721 23.4282 69.4949 21.58 65.2025 22.6398C60.91 23.6994 60.5523 23.0705 57.0945 22.7127C56.0271 22.6022 55.0556 22.6358 54.1999 22.7244L54.0574 21.9531C52.6243 16.8897 46.3191 13.546 46.3191 13.546C45.1791 11.7791 42.4465 11.2395 40.4229 11.0892L40.4194 11.0864L40.3823 11.0861C39.0342 10.9889 38.0075 11.062 38.0075 11.062L38.0117 11.0649L37.6938 11.062C37.6938 11.062 31.293 10.5845 29.3823 13.546C29.3823 13.546 28.2475 14.1514 26.8342 15.2279L26.8339 15.2276L26.8341 15.228C24.9111 16.6928 22.4698 19.0345 21.6439 21.9531Z" fill="#B9D67C"/>
<path d="M27.0493 29.9852C27.0493 29.9852 26.3107 32.8053 29.7687 32.738C29.7687 32.738 32.0851 33.1409 31.9508 29.9852" fill="white"/>
<path d="M24.2293 29.9852C24.2293 29.9852 25.5369 25.2852 29.8182 25.6209C29.8182 25.6209 34.3007 25.9565 35.3079 29.9852" fill="#889B4C"/>
<path d="M51.7707 29.9852C51.7707 29.9852 50.463 25.2852 46.1818 25.6209C46.1818 25.6209 41.6991 25.9565 40.692 29.9852" fill="#889B4C"/>
<path d="M48.9508 29.9852C48.9508 29.9852 49.6893 32.8053 46.2313 32.738C46.2313 32.738 43.915 33.1409 44.0493 29.9852" fill="white"/>
<path d="M37.8431 11.2372C37.8431 11.2372 31.4423 10.7596 29.5316 13.7211C29.5316 13.7211 23.2262 17.0648 21.7933 22.1281" stroke="#303030" stroke-width="0.75" stroke-miterlimit="10" stroke-linecap="round" stroke-linejoin="round"/>
<path d="M2.77863 23.6033C2.77863 23.6033 8.71341 28.8565 9.4 29.9355C10.0866 31.0144 17.4077 36.4385 21.5938 35.6392" stroke="#303030" stroke-width="0.75" stroke-miterlimit="10" stroke-linecap="round" stroke-linejoin="round"/>
<path d="M24.2293 29.9852C24.2293 29.9852 25.5369 25.2852 29.8182 25.6209C29.8182 25.6209 34.3007 25.9565 35.3079 29.9852" stroke="#303030" stroke-width="0.75" stroke-miterlimit="10" stroke-linecap="round" stroke-linejoin="round"/>
<path d="M24.2293 29.9852H35.3078" stroke="#303030" stroke-width="0.75" stroke-miterlimit="10" stroke-linecap="round" stroke-linejoin="round"/>
<path d="M27.0493 29.9852C27.0493 29.9852 26.3107 32.8053 29.7687 32.738C29.7687 32.738 32.0851 33.1409 31.9508 29.9852" stroke="#303030" stroke-width="0.75" stroke-miterlimit="10" stroke-linecap="round" stroke-linejoin="round"/>
<path d="M25.5721 32.2681C25.5721 32.2681 29.0636 34.4837 33.5622 32.2681" stroke="#303030" stroke-width="0.75" stroke-miterlimit="10" stroke-linecap="round" stroke-linejoin="round"/>
<path d="M38.1569 11.2372C38.1569 11.2372 44.5577 10.7596 46.4684 13.7211C46.4684 13.7211 52.7736 17.0648 54.2067 22.1281" stroke="#303030" stroke-width="0.75" stroke-miterlimit="10" stroke-linecap="round" stroke-linejoin="round"/>
<path d="M51.1629 23.6033C51.1629 23.6033 53.786 22.5301 57.2438 22.8878C60.7016 23.2456 61.0594 23.8745 65.3519 22.8149C69.6442 21.7551 73.2214 23.6033 73.2214 23.6033C73.2214 23.6033 66.5019 25.9142 64.9326 27.3853C63.3632 28.8565 57.9686 30.1316 55.4185 29.2489C55.4185 29.2489 55.0262 36.4091 53.0645 38.3708L46.1818 46.5116C46.1818 46.5116 43.2561 49.0619 38.8423 48.7676H37.1577C32.7439 49.0619 29.8182 46.5116 29.8182 46.5116L22.9356 38.3708C20.9739 36.4091 20.5815 29.2489 20.5815 29.2489C18.0313 30.1317 12.6368 28.8565 11.0675 27.3853C9.4981 25.9142 2.77866 23.6033 2.77866 23.6033C2.77866 23.6033 6.35568 21.7551 10.6482 22.8149C14.9407 23.8745 15.2984 23.2456 18.7563 22.8878C22.2141 22.5301 24.8372 23.6033 24.8372 23.6033" stroke="#303030" stroke-width="0.75" stroke-miterlimit="10" stroke-linecap="round" stroke-linejoin="round"/>
<path d="M38.1569 11.2372C38.1569 11.2372 44.5577 10.7596 46.4684 13.7211C46.4684 13.7211 52.7736 17.0648 54.2067 22.1281" stroke="#303030" stroke-width="0.75" stroke-miterlimit="10" stroke-linecap="round" stroke-linejoin="round"/>
<path d="M51.1629 23.6033C51.1629 23.6033 53.786 22.5301 57.2438 22.8878C60.7016 23.2456 61.0594 23.8745 65.3519 22.8149C69.6442 21.7551 73.2214 23.6033 73.2214 23.6033C73.2214 23.6033 66.5019 25.9142 64.9326 27.3853C63.3632 28.8565 57.9686 30.1316 55.4185 29.2489C55.4185 29.2489 55.0262 36.4091 53.0645 38.3708L46.1818 46.5116C46.1818 46.5116 43.2561 49.0619 38.8423 48.7676H37.1577C32.7439 49.0619 29.8182 46.5116 29.8182 46.5116L22.9356 38.3708C20.9739 36.4091 20.5815 29.2489 20.5815 29.2489C18.0313 30.1317 12.6368 28.8565 11.0675 27.3853C9.4981 25.9142 2.77866 23.6033 2.77866 23.6033C2.77866 23.6033 6.35568 21.7551 10.6482 22.8149C14.9407 23.8745 15.2984 23.2456 18.7563 22.8878C22.2141 22.5301 24.8372 23.6033 24.8372 23.6033" stroke="#303030" stroke-width="0.75" stroke-miterlimit="10" stroke-linecap="round" stroke-linejoin="round"/>
<path d="M73.2214 23.6033C73.2214 23.6033 67.2866 28.8565 66.6 29.9355C65.9134 31.0144 58.5923 36.4385 54.4062 35.6392" stroke="#303030" stroke-width="0.75" stroke-miterlimit="10" stroke-linecap="round" stroke-linejoin="round"/>
<path d="M51.7707 29.9852C51.7707 29.9852 50.463 25.2852 46.1818 25.6209C46.1818 25.6209 41.6991 25.9565 40.692 29.9852" stroke="#303030" stroke-width="0.75" stroke-miterlimit="10" stroke-linecap="round" stroke-linejoin="round"/>
<path d="M51.7707 29.9852H40.692" stroke="#303030" stroke-width="0.75" stroke-miterlimit="10" stroke-linecap="round" stroke-linejoin="round"/>
<path d="M48.9508 29.9852C48.9508 29.9852 49.6893 32.8053 46.2313 32.738C46.2313 32.738 43.915 33.1409 44.0493 29.9852" stroke="#303030" stroke-width="0.75" stroke-miterlimit="10" stroke-linecap="round" stroke-linejoin="round"/>
<path d="M50.4278 32.2681C50.4278 32.2681 46.9364 34.4837 42.4377 32.2681" stroke="#303030" stroke-width="0.75" stroke-miterlimit="10" stroke-linecap="round" stroke-linejoin="round"/>
<path d="M30.537 43.1522C30.6105 36.0167 35.3079 34.5455 35.3079 34.5455L37.8431 35.6392L40.5416 34.5455C40.5416 34.5455 45.3231 36.4581 45.1759 43.1522" stroke="#303030" stroke-width="0.75" stroke-miterlimit="10" stroke-linecap="round" stroke-linejoin="round"/>
<path d="M30.7624 40.7384H44.939" stroke="#303030" stroke-width="0.75" stroke-miterlimit="10" stroke-linecap="round" stroke-linejoin="round"/>
<path d="M35.3079 34.5455L37.1577 27.7945" stroke="#303030" stroke-width="0.75" stroke-miterlimit="10" stroke-linecap="round" stroke-linejoin="round"/>
<path d="M40.6718 34.5455L38.822 27.7945" stroke="#303030" stroke-width="0.75" stroke-miterlimit="10" stroke-linecap="round" stroke-linejoin="round"/>
<path d="M30.7623 22.487C30.7623 22.487 29.02 17.2988 26.9832 15.4027" stroke="#303030" stroke-width="0.75" stroke-miterlimit="10" stroke-linecap="round" stroke-linejoin="round"/>
<path d="M35.3079 22.1281C35.3079 22.1281 34.2244 15.934 30.7624 12.9181" stroke="#303030" stroke-width="0.75" stroke-miterlimit="10" stroke-linecap="round" stroke-linejoin="round"/>
<path d="M45.2173 22.487C45.2173 22.487 46.9597 17.2988 48.9965 15.4027" stroke="#303030" stroke-width="0.75" stroke-miterlimit="10" stroke-linecap="round" stroke-linejoin="round"/>
<path d="M40.6718 21.9487C40.6718 21.9487 41.7553 15.7546 45.2174 12.7387" stroke="#303030" stroke-width="0.75" stroke-miterlimit="10" stroke-linecap="round" stroke-linejoin="round"/>
<path d="M25.0197 36.038C25.0197 36.038 26.1153 37.8808 26.6633 38.329" stroke="#303030" stroke-width="0.75" stroke-miterlimit="10" stroke-linecap="round" stroke-linejoin="round"/>
<path d="M20.9708 32.7548L17.5175 32.13" stroke="#303030" stroke-width="0.75" stroke-miterlimit="10" stroke-linecap="round" stroke-linejoin="round"/>
<path d="M55.0286 32.7548L57.8113 32.2681" stroke="#303030" stroke-width="0.75" stroke-miterlimit="10" stroke-linecap="round" stroke-linejoin="round"/>
<path d="M90.072 21.2C92.248 21.2 93.96 21.72 95.208 22.76C96.456 23.8 97.08 25.232 97.08 27.056C97.08 28.88 96.456 30.312 95.208 31.352C93.96 32.392 92.248 32.912 90.072 32.912H85.92V38H83.52V21.2H90.072ZM90 30.824C91.52 30.824 92.68 30.504 93.48 29.864C94.28 29.208 94.68 28.272 94.68 27.056C94.68 25.84 94.28 24.912 93.48 24.272C92.68 23.616 91.52 23.288 90 23.288H85.92V30.824H90ZM104.785 25.16C106.545 25.16 107.889 25.592 108.817 26.456C109.761 27.32 110.233 28.608 110.233 30.32V38H108.049V36.32C107.665 36.912 107.113 37.368 106.393 37.688C105.689 37.992 104.849 38.144 103.873 38.144C102.449 38.144 101.305 37.8 100.441 37.112C99.5928 36.424 99.1688 35.52 99.1688 34.4C99.1688 33.28 99.5768 32.384 100.393 31.712C101.209 31.024 102.505 30.68 104.281 30.68H107.929V30.224C107.929 29.232 107.641 28.472 107.065 27.944C106.489 27.416 105.641 27.152 104.521 27.152C103.769 27.152 103.033 27.28 102.313 27.536C101.593 27.776 100.985 28.104 100.489 28.52L99.5288 26.792C100.185 26.264 100.969 25.864 101.881 25.592C102.793 25.304 103.761 25.16 104.785 25.16ZM104.257 36.368C105.137 36.368 105.897 36.176 106.537 35.792C107.177 35.392 107.641 34.832 107.929 34.112V32.336H104.377C102.425 32.336 101.449 32.992 101.449 34.304C101.449 34.944 101.697 35.448 102.193 35.816C102.689 36.184 103.377 36.368 104.257 36.368ZM126.567 20.192V38H124.359V35.984C123.847 36.688 123.199 37.224 122.415 37.592C121.631 37.96 120.767 38.144 119.823 38.144C118.591 38.144 117.487 37.872 116.511 37.328C115.535 36.784 114.767 36.024 114.207 35.048C113.663 34.056 113.391 32.92 113.391 31.64C113.391 30.36 113.663 29.232 114.207 28.256C114.767 27.28 115.535 26.52 116.511 25.976C117.487 25.432 118.591 25.16 119.823 25.16C120.735 25.16 121.575 25.336 122.343 25.688C123.111 26.024 123.751 26.528 124.263 27.2V20.192H126.567ZM120.015 36.128C120.815 36.128 121.543 35.944 122.199 35.576C122.855 35.192 123.367 34.664 123.735 33.992C124.103 33.304 124.287 32.52 124.287 31.64C124.287 30.76 124.103 29.984 123.735 29.312C123.367 28.624 122.855 28.096 122.199 27.728C121.543 27.36 120.815 27.176 120.015 27.176C119.199 27.176 118.463 27.36 117.807 27.728C117.167 28.096 116.655 28.624 116.271 29.312C115.903 29.984 115.719 30.76 115.719 31.64C115.719 32.52 115.903 33.304 116.271 33.992C116.655 34.664 117.167 35.192 117.807 35.576C118.463 35.944 119.199 36.128 120.015 36.128ZM135.558 25.16C137.318 25.16 138.662 25.592 139.59 26.456C140.534 27.32 141.006 28.608 141.006 30.32V38H138.822V36.32C138.438 36.912 137.886 37.368 137.166 37.688C136.462 37.992 135.622 38.144 134.646 38.144C133.222 38.144 132.078 37.8 131.214 37.112C130.366 36.424 129.942 35.52 129.942 34.4C129.942 33.28 130.35 32.384 131.166 31.712C131.982 31.024 133.278 30.68 135.054 30.68H138.702V30.224C138.702 29.232 138.414 28.472 137.838 27.944C137.262 27.416 136.414 27.152 135.294 27.152C134.542 27.152 133.806 27.28 133.086 27.536C132.366 27.776 131.758 28.104 131.262 28.52L130.302 26.792C130.958 26.264 131.742 25.864 132.654 25.592C133.566 25.304 134.534 25.16 135.558 25.16ZM135.03 36.368C135.91 36.368 136.67 36.176 137.31 35.792C137.95 35.392 138.414 34.832 138.702 34.112V32.336H135.15C133.198 32.336 132.222 32.992 132.222 34.304C132.222 34.944 132.47 35.448 132.966 35.816C133.462 36.184 134.15 36.368 135.03 36.368ZM164.284 25.28L159.532 38H157.324L153.652 28.352L149.932 38H147.724L142.996 25.28H145.18L148.876 35.408L152.716 25.28H154.66L158.428 35.456L162.22 25.28H164.284ZM170.855 25.16C172.615 25.16 173.959 25.592 174.887 26.456C175.831 27.32 176.303 28.608 176.303 30.32V38H174.119V36.32C173.735 36.912 173.183 37.368 172.463 37.688C171.759 37.992 170.919 38.144 169.943 38.144C168.519 38.144 167.375 37.8 166.511 37.112C165.663 36.424 165.239 35.52 165.239 34.4C165.239 33.28 165.647 32.384 166.463 31.712C167.279 31.024 168.575 30.68 170.351 30.68H173.999V30.224C173.999 29.232 173.711 28.472 173.135 27.944C172.559 27.416 171.711 27.152 170.591 27.152C169.839 27.152 169.103 27.28 168.383 27.536C167.663 27.776 167.055 28.104 166.559 28.52L165.599 26.792C166.255 26.264 167.039 25.864 167.951 25.592C168.863 25.304 169.831 25.16 170.855 25.16ZM170.327 36.368C171.207 36.368 171.967 36.176 172.607 35.792C173.247 35.392 173.711 34.832 173.999 34.112V32.336H170.447C168.495 32.336 167.519 32.992 167.519 34.304C167.519 34.944 167.767 35.448 168.263 35.816C168.759 36.184 169.447 36.368 170.327 36.368ZM187.359 25.16C188.975 25.16 190.255 25.632 191.199 26.576C192.159 27.504 192.639 28.872 192.639 30.68V38H190.335V30.944C190.335 29.712 190.039 28.784 189.447 28.16C188.855 27.536 188.007 27.224 186.903 27.224C185.655 27.224 184.671 27.592 183.951 28.328C183.231 29.048 182.871 30.088 182.871 31.448V38H180.567V25.28H182.775V27.2C183.239 26.544 183.863 26.04 184.647 25.688C185.447 25.336 186.351 25.16 187.359 25.16ZM200.551 38.144C199.511 38.144 198.511 38.008 197.551 37.736C196.591 37.448 195.839 37.088 195.295 36.656L196.255 34.832C196.815 35.232 197.495 35.552 198.295 35.792C199.095 36.032 199.903 36.152 200.719 36.152C202.735 36.152 203.743 35.576 203.743 34.424C203.743 34.04 203.607 33.736 203.335 33.512C203.063 33.288 202.719 33.128 202.303 33.032C201.903 32.92 201.327 32.8 200.575 32.672C199.551 32.512 198.711 32.328 198.055 32.12C197.415 31.912 196.863 31.56 196.399 31.064C195.935 30.568 195.703 29.872 195.703 28.976C195.703 27.824 196.183 26.904 197.143 26.216C198.103 25.512 199.391 25.16 201.007 25.16C201.855 25.16 202.703 25.264 203.551 25.472C204.399 25.68 205.095 25.96 205.639 26.312L204.655 28.136C203.615 27.464 202.391 27.128 200.983 27.128C200.007 27.128 199.263 27.288 198.751 27.608C198.239 27.928 197.983 28.352 197.983 28.88C197.983 29.296 198.127 29.624 198.415 29.864C198.703 30.104 199.055 30.28 199.471 30.392C199.903 30.504 200.503 30.632 201.271 30.776C202.295 30.952 203.119 31.144 203.743 31.352C204.383 31.544 204.927 31.88 205.375 32.36C205.823 32.84 206.047 33.512 206.047 34.376C206.047 35.528 205.551 36.448 204.559 37.136C203.583 37.808 202.247 38.144 200.551 38.144Z" fill="#232323"/>
<path d="M224 22.736H218.096V21.2H231.68V22.736H225.776V38H224V22.736ZM241.627 38.144C239.963 38.144 238.451 37.776 237.091 37.04C235.747 36.288 234.691 35.264 233.923 33.968C233.171 32.672 232.795 31.216 232.795 29.6C232.795 27.984 233.171 26.528 233.923 25.232C234.691 23.936 235.747 22.92 237.091 22.184C238.451 21.432 239.963 21.056 241.627 21.056C243.291 21.056 244.787 21.424 246.115 22.16C247.459 22.896 248.515 23.92 249.283 25.232C250.051 26.528 250.435 27.984 250.435 29.6C250.435 31.216 250.051 32.68 249.283 33.992C248.515 35.288 247.459 36.304 246.115 37.04C244.787 37.776 243.291 38.144 241.627 38.144ZM241.627 36.56C242.955 36.56 244.155 36.264 245.227 35.672C246.299 35.064 247.139 34.232 247.747 33.176C248.355 32.104 248.659 30.912 248.659 29.6C248.659 28.288 248.355 27.104 247.747 26.048C247.139 24.976 246.299 24.144 245.227 23.552C244.155 22.944 242.955 22.64 241.627 22.64C240.299 22.64 239.091 22.944 238.003 23.552C236.931 24.144 236.083 24.976 235.459 26.048C234.851 27.104 234.547 28.288 234.547 29.6C234.547 30.912 234.851 32.104 235.459 33.176C236.083 34.232 236.931 35.064 238.003 35.672C239.091 36.264 240.299 36.56 241.627 36.56ZM253.307 30.752H259.595V32.24H253.307V30.752ZM263.767 21.2H270.607C272.383 21.2 273.951 21.56 275.311 22.28C276.671 22.984 277.727 23.976 278.479 25.256C279.231 26.52 279.607 27.968 279.607 29.6C279.607 31.232 279.231 32.688 278.479 33.968C277.727 35.232 276.671 36.224 275.311 36.944C273.951 37.648 272.383 38 270.607 38H263.767V21.2ZM270.511 36.464C271.983 36.464 273.271 36.176 274.375 35.6C275.479 35.008 276.335 34.2 276.943 33.176C277.551 32.136 277.855 30.944 277.855 29.6C277.855 28.256 277.551 27.072 276.943 26.048C276.335 25.008 275.479 24.2 274.375 23.624C273.271 23.032 271.983 22.736 270.511 22.736H265.543V36.464H270.511ZM290.939 38.144C289.275 38.144 287.763 37.776 286.403 37.04C285.059 36.288 284.003 35.264 283.235 33.968C282.483 32.672 282.107 31.216 282.107 29.6C282.107 27.984 282.483 26.528 283.235 25.232C284.003 23.936 285.059 22.92 286.403 22.184C287.763 21.432 289.275 21.056 290.939 21.056C292.603 21.056 294.099 21.424 295.427 22.16C296.771 22.896 297.827 23.92 298.595 25.232C299.363 26.528 299.747 27.984 299.747 29.6C299.747 31.216 299.363 32.68 298.595 33.992C297.827 35.288 296.771 36.304 295.427 37.04C294.099 37.776 292.603 38.144 290.939 38.144ZM290.939 36.56C292.267 36.56 293.467 36.264 294.539 35.672C295.611 35.064 296.451 34.232 297.059 33.176C297.667 32.104 297.971 30.912 297.971 29.6C297.971 28.288 297.667 27.104 297.059 26.048C296.451 24.976 295.611 24.144 294.539 23.552C293.467 22.944 292.267 22.64 290.939 22.64C289.611 22.64 288.403 22.944 287.315 23.552C286.243 24.144 285.395 24.976 284.771 26.048C284.163 27.104 283.859 28.288 283.859 29.6C283.859 30.912 284.163 32.104 284.771 33.176C285.395 34.232 286.243 35.064 287.315 35.672C288.403 36.264 289.611 36.56 290.939 36.56ZM306.752 38.12C305.728 38.12 304.744 37.976 303.8 37.688C302.872 37.384 302.144 37.008 301.616 36.56L302.384 35.216C302.912 35.632 303.576 35.976 304.376 36.248C305.176 36.504 306.008 36.632 306.872 36.632C308.024 36.632 308.872 36.456 309.416 36.104C309.976 35.736 310.256 35.224 310.256 34.568C310.256 34.104 310.104 33.744 309.8 33.488C309.496 33.216 309.112 33.016 308.648 32.888C308.184 32.744 307.568 32.608 306.8 32.48C305.776 32.288 304.952 32.096 304.328 31.904C303.704 31.696 303.168 31.352 302.72 30.872C302.288 30.392 302.072 29.728 302.072 28.88C302.072 27.824 302.512 26.96 303.392 26.288C304.272 25.616 305.496 25.28 307.064 25.28C307.88 25.28 308.696 25.392 309.512 25.616C310.328 25.824 311 26.104 311.528 26.456L310.784 27.824C309.744 27.104 308.504 26.744 307.064 26.744C305.976 26.744 305.152 26.936 304.592 27.32C304.048 27.704 303.776 28.208 303.776 28.832C303.776 29.312 303.928 29.696 304.232 29.984C304.552 30.272 304.944 30.488 305.408 30.632C305.872 30.76 306.512 30.896 307.328 31.04C308.336 31.232 309.144 31.424 309.752 31.616C310.36 31.808 310.88 32.136 311.312 32.6C311.744 33.064 311.96 33.704 311.96 34.52C311.96 35.624 311.496 36.504 310.568 37.16C309.656 37.8 308.384 38.12 306.752 38.12Z" fill="#232323"/>
<rect x="212" y="10" width="1" height="40" fill="#232323"/>
</g>
<defs>
<clipPath id="clip0">
<rect width="318" height="60" fill="white"/>
</clipPath>
</defs>
</svg>
